<?xml version="1.0" encoding="iso-8859-1"?>
<!-- Generator: Adobe Illustrator 18.0.0, SVG Export Plug-In . SVG Version: 6.00 Build 0)  -->
<!DOCTYPE svg PUBLIC "-//W3C//DTD SVG 1.1//EN" "http://www.w3.org/Graphics/SVG/1.1/DTD/svg11.dtd">
<svg version="1.1" id="&#x5716;&#x5C64;_1" xmlns="http://www.w3.org/2000/svg" xmlns:xlink="http://www.w3.org/1999/xlink" x="0px"
	 y="0px" viewBox="0 0 65.863 78.071" style="enable-background:new 0 0 65.863 78.071;" xml:space="preserve">
<g>
	<g>
		<path style="fill:#FFFFFF;" d="M31.693,78.071c-6.859,0.001-17.268-6.973-21.832-17.353c-1.837-4.175-2.498-9.034-3.198-14.179
			c-0.101-0.74-0.202-1.486-0.308-2.235c-0.176-1.24-0.362-2.466-0.547-3.67c-1.344-8.802-2.613-17.117,2.277-22.81
			c4.026-4.688,11.573-6.871,23.752-6.871c10.638,0,17.871,2.28,22.113,6.971c3.831,4.236,4.741,9.993,4.639,15.737
			c0.869-0.378,1.767-0.577,2.603-0.577c2.325,0,4.671,1.59,4.671,5.142c0,5.475-3.961,8.951-6.582,11.251
			c-0.611,0.536-1.438,1.261-1.666,1.59l-0.028,0.118c-1.021,4.198-2.178,8.957-4.285,12.599
			c-5.041,8.714-15.404,13.884-20.946,14.265C32.139,78.064,31.919,78.071,31.693,78.071z M31.837,15.003
			c-10.76,0-17.524,1.786-20.68,5.46C7.48,24.745,8.56,31.824,9.812,40.022c0.186,1.22,0.375,2.459,0.553,3.715
			c0.107,0.755,0.209,1.508,0.311,2.254c0.66,4.855,1.285,9.441,2.892,13.095c4.18,9.505,13.789,15.257,18.509,14.921
			c3.74-0.257,13.079-4.232,17.719-12.253c1.815-3.137,2.899-7.595,3.855-11.527l0.058-0.237c0.312-1.288,1.399-2.24,2.901-3.558
			c2.318-2.034,5.203-4.567,5.203-8.207c0-1.092-0.33-1.092-0.621-1.092c-0.932,0-2.519,0.914-2.986,2.359
			c-0.043,0.42-0.089,0.842-0.137,1.267c-0.119,1.049-1.024,1.859-2.078,1.796c-1.054-0.034-1.906-0.872-1.957-1.926
			c-0.031-0.632,0.028-1.262,0.176-1.877c0.677-6.805,0.731-13.693-3.265-18.112C47.515,16.847,41.265,15.003,31.837,15.003z"/>
	</g>
	<g>
		<path style="fill:#FFFFFF;" d="M14.62,19.518c2.628-0.776,13.191-2.804,17.596,0.492c5.818-3.296,15.356-0.045,20.057,2.988
			s4.224,15.228,4.224,15.228l2.819-3.632c0,0,0.942-17.332-4.709-21.615S32.004-3.077,16.936,2.102S6.181,35.535,6.181,35.535
			l0.999,2.691C7.181,38.226,8.188,21.416,14.62,19.518z"/>
		<path style="fill:#FFFFFF;" d="M7.758,42.108l-2.377-6.45c-0.045-0.293-1.085-7.255-0.278-14.981
			c1.088-10.425,5.089-17.113,11.57-19.34C19.253,0.449,22.035,0,24.94,0c12.083,0,24.08,7.727,30.156,12.333
			c5.925,4.491,5.067,21.58,5.028,22.305l-0.013,0.252l-4.521,5.826l0.098-2.522c0.127-3.265-0.32-12.235-3.853-14.516
			c-3.272-2.11-8.766-4.24-13.665-4.24c-2.19,0-4.059,0.43-5.554,1.277l-0.461,0.261l-0.423-0.317
			c-1.453-1.087-3.948-1.662-7.214-1.662c-3.84,0-7.968,0.796-9.668,1.297c-4.825,1.425-6.588,13.462-6.86,17.98L7.758,42.108z
			 M38.169,17.818c5.229,0,11.071,2.26,14.543,4.499c3.729,2.406,4.465,9.718,4.588,13.552l1.217-1.569
			c0.085-2.113,0.492-16.968-4.4-20.676C48.203,9.14,36.549,1.62,24.94,1.62c-2.726,0-5.33,0.42-7.741,1.248
			C4.77,7.141,6.212,28.47,6.817,34.068c0.764-5.278,2.741-13.901,7.574-15.328c1.285-0.379,5.61-1.364,10.127-1.364
			c3.383,0,5.987,0.568,7.753,1.687C33.924,18.238,35.906,17.818,38.169,17.818z"/>
	</g>
	<g>
		<path style="fill:#FFFFFF;" d="M8.7,49.809c-2.25,0-5.364-3.124-6.584-4.76c-2.566-3.442-2.81-6.917-0.669-9.535
			c1.561-1.908,3.01-1.999,3.953-1.74c2.743,0.758,3.704,5.341,3.989,7.276c0.131,0.884-0.48,1.707-1.365,1.838
			c-0.884,0.135-1.708-0.48-1.84-1.364c-0.293-1.964-1.041-4.087-1.592-4.574c-0.113,0.07-0.328,0.236-0.638,0.615
			c-0.777,0.949-0.923,2.012-0.461,3.342c0.977,2.81,4.148,5.294,5.178,5.648c0.697-0.079,1.396,0.303,1.681,0.985
			c0.346,0.825-0.044,1.774-0.869,2.119C9.239,49.763,8.976,49.809,8.7,49.809z"/>
	</g>
	<g>
		<path style="fill:#FFFFFF;" d="M14.62,37.227c0,0,2.043-2.898,4.76-2.991s7.409,2.517,7.409,2.517S17.557,35.682,14.62,37.227z"/>
		<path style="fill:#FFFFFF;" d="M14.62,38.037c-0.227,0-0.451-0.096-0.609-0.275c-0.247-0.282-0.269-0.695-0.053-1.001
			c0.093-0.132,2.311-3.229,5.395-3.333l0.172-0.003c2.723,0,6.88,2.198,7.567,2.572c0.306,0.115,0.524,0.008,0.524,0.354
			c0,0.448-0.362,0.407-0.81,0.407c-0.006,0-0.01,0-0.015,0c-0.032,0-0.062,0.402-0.094,0.398C26.666,37.151,23.586,37,20.485,37
			c-3.37,0-4.844,0.504-5.488,0.843C14.878,37.906,14.748,38.037,14.62,38.037z M19.525,35.044l-0.117,0.002
			C18.683,35.07,18,35.35,17.405,35.72c0.885-0.093,1.91-0.138,3.08-0.138c0.602,0,1.199,0.013,1.773,0.032
			C21.292,35.284,20.316,35.044,19.525,35.044z"/>
	</g>
	<g>
		<path style="fill:#FFFFFF;" d="M35.084,36.211c0,0,5.43-2.933,8.818-2.417c3.388,0.516,5.188,3.297,5.188,3.297
			S43.851,35.469,35.084,36.211z"/>
		<path style="fill:#FFFFFF;" d="M49.105,37.9c-0.075-0.003-0.17-0.01-0.255-0.036c-0.033-0.011-3.448-1.039-9.248-1.039
			c-1.452,0-2.95,0.065-4.451,0.191c-0.373,0.043-0.735-0.208-0.844-0.575c-0.11-0.368,0.054-0.762,0.391-0.944
			c0.195-0.105,4.809-2.576,8.345-2.576c0.345,0,0.674,0.024,0.979,0.07c3.306,0.503,5.222,2.919,5.655,3.524
			c0.147,0.146,0.237,0.35,0.237,0.573C49.915,37.538,49.553,37.9,49.105,37.9z M39.603,35.756c2.954,0,5.304-0.023,6.952,0.242
			c-0.726-0.503-1.657-1.096-2.776-1.267c-0.225-0.034-0.472,0.155-0.736,0.155c-1.092,0-2.341,0.87-3.506,0.87
			C39.559,35.756,39.581,35.756,39.603,35.756z"/>
	</g>
	<g>
		<path style="fill:#FFFFFF;" d="M31.35,67.641c-5.731,0-10.571-5.928-10.774-6.18c-0.343-0.426-0.448-0.995-0.28-1.515
			c0.168-0.52,0.586-0.919,1.113-1.064c0.157-0.043,3.912-1.054,10.122-1.054c3.716,0,7.539,0.363,11.363,1.078
			c0.552,0.103,1.011,0.485,1.213,1.009c0.202,0.524,0.119,1.115-0.221,1.562c-0.172,0.227-4.306,5.566-11.914,6.139
			C31.764,67.633,31.556,67.641,31.35,67.641z M25.135,61.481c1.658,1.442,4.108,3.096,6.592,2.905
			c3.276-0.247,5.765-1.592,7.383-2.806c-2.556-0.341-5.095-0.513-7.58-0.513C28.881,61.068,26.709,61.267,25.135,61.481z"/>
	</g>
	<g>
		<ellipse style="fill:#FFFFFF;" cx="21.514" cy="43.276" rx="3.29" ry="3.184"/>
	</g>
	<g>
		<ellipse style="fill:#FFFFFF;" cx="41.764" cy="43.276" rx="3.29" ry="3.184"/>
	</g>
	<g>
		<path style="fill:#FFFFFF;" d="M31.407,54.457c-1.561,0-3.644-2.122-4.747-3.386c-0.441-0.505-0.388-1.273,0.117-1.713
			c0.505-0.442,1.274-0.389,1.714,0.116c1.086,1.243,2.5,2.462,2.966,2.557c0.805-0.003,2.558-1.487,3.495-2.558
			c0.442-0.505,1.209-0.557,1.715-0.114c0.505,0.442,0.556,1.209,0.114,1.715C36.287,51.638,33.703,54.457,31.407,54.457z"/>
	</g>
</g>
</svg>
