<?xml version="1.0" encoding="iso-8859-1"?>
<!-- Generator: Adobe Illustrator 18.0.0, SVG Export Plug-In . SVG Version: 6.00 Build 0)  -->
<!DOCTYPE svg PUBLIC "-//W3C//DTD SVG 1.1//EN" "http://www.w3.org/Graphics/SVG/1.1/DTD/svg11.dtd">
<svg version="1.1" id="&#x5716;&#x5C64;_1" xmlns="http://www.w3.org/2000/svg" xmlns:xlink="http://www.w3.org/1999/xlink" x="0px"
	 y="0px" viewBox="0 0 15.185 31.607" style="enable-background:new 0 0 15.185 31.607;" xml:space="preserve">
<path style="fill:#FFFFFF;" d="M3.233,10.482c0-1.249-0.018-2.414,0.007-3.579c0.015-0.704,0.039-1.417,0.155-2.109
	C3.852,2.082,5.71,0.298,8.445,0.07c2.099-0.174,4.199-0.018,6.275,0.388c0.312,0.061,0.513,0.368,0.454,0.681
	c-0.269,1.402-0.489,2.814-0.734,4.255c-0.75-0.103-1.46-0.252-2.175-0.282c-0.575-0.024-1.174,0.025-1.73,0.168
	C9.887,5.448,9.431,5.912,9.413,6.624c-0.03,1.248-0.008,2.498-0.008,3.841c0.878,0,1.737,0,2.596,0c0.842,0,1.685,0,2.6,0
	c-0.124,1.612-0.241,3.147-0.363,4.732H9.422v16.411H3.264V15.226H0v-4.744H3.233z"/>
</svg>
