<?xml version="1.0" encoding="iso-8859-1"?>
<!-- Generator: Adobe Illustrator 18.0.0, SVG Export Plug-In . SVG Version: 6.00 Build 0)  -->
<!DOCTYPE svg PUBLIC "-//W3C//DTD SVG 1.1//EN" "http://www.w3.org/Graphics/SVG/1.1/DTD/svg11.dtd">
<svg version="1.1" id="&#x5716;&#x5C64;_1" xmlns="http://www.w3.org/2000/svg" xmlns:xlink="http://www.w3.org/1999/xlink" x="0px"
	 y="0px" viewBox="0 0 51.145 52.836" style="enable-background:new 0 0 51.145 52.836;" xml:space="preserve">
<g id="X3w0rk_1_">
	<g>
		<path style="fill:#00BDD4;" d="M26.593,22.864c-1.161,0-2.257,0-3.357,0c0,1.672,0,3.255,0,4.927c1.131,0,2.227,0,3.389,0
			c0,5.736,0,11.384,0,17.011c2.155,0,4.239,0,6.395,0c0-5.697,0-11.343,0-17.042c1.7,0,3.327,0,5.002,0
			c0.126-1.645,0.248-3.24,0.377-4.914c-0.951,0-1.825,0-2.7,0c-0.892,0-1.784,0-2.696,0c0-1.395-0.023-2.692,0.009-3.989
			c0.018-0.74,0.492-1.221,1.165-1.395c0.577-0.149,1.199-0.2,1.797-0.175c0.743,0.031,1.48,0.186,2.258,0.293
			c0.254-1.496,0.483-2.962,0.762-4.418c0.089-0.465-0.035-0.622-0.485-0.71c-2.152-0.42-4.328-0.581-6.502-0.4
			c-2.841,0.236-4.77,2.089-5.244,4.905c-0.121,0.719-0.146,1.459-0.161,2.19C26.575,20.357,26.593,21.568,26.593,22.864z"/>
		<path style="fill:#00BDD4;" d="M26.593,22.864c0-1.297-0.018-2.507,0.007-3.716c0.015-0.731,0.04-1.471,0.161-2.19
			c0.475-2.816,2.403-4.669,5.244-4.905c2.175-0.181,4.351-0.019,6.502,0.4c0.45,0.088,0.574,0.245,0.485,0.71
			c-0.279,1.456-0.508,2.922-0.762,4.418c-0.778-0.107-1.516-0.261-2.258-0.293c-0.597-0.025-1.219,0.026-1.797,0.175
			c-0.673,0.173-1.147,0.655-1.165,1.395c-0.031,1.296-0.009,2.594-0.009,3.989c0.912,0,1.804,0,2.696,0c0.875,0,1.75,0,2.7,0
			c-0.128,1.674-0.251,3.268-0.377,4.914c-1.675,0-3.302,0-5.002,0c0,5.699,0,11.344,0,17.042c-2.156,0-4.239,0-6.395,0
			c0-5.628,0-11.275,0-17.011c-1.162,0-2.258,0-3.389,0c0-1.672,0-3.255,0-4.927C24.337,22.864,25.432,22.864,26.593,22.864z"/>
	</g>
</g>
<g>
	<path style="fill:#00BDD4;" d="M47.645,52.836H3.5c-1.93,0-3.5-1.57-3.5-3.5V3.5C0,1.57,1.57,0,3.5,0h44.145
		c1.93,0,3.5,1.57,3.5,3.5v45.836C51.145,51.266,49.574,52.836,47.645,52.836z M3.5,1C2.121,1,1,2.121,1,3.5v45.836
		c0,1.379,1.121,2.5,2.5,2.5h44.145c1.379,0,2.5-1.121,2.5-2.5V3.5c0-1.379-1.121-2.5-2.5-2.5H3.5z"/>
</g>
</svg>
