<?xml version="1.0" encoding="iso-8859-1"?>
<!-- Generator: Adobe Illustrator 18.0.0, SVG Export Plug-In . SVG Version: 6.00 Build 0)  -->
<!DOCTYPE svg PUBLIC "-//W3C//DTD SVG 1.1//EN" "http://www.w3.org/Graphics/SVG/1.1/DTD/svg11.dtd">
<svg version="1.1" id="&#x5716;&#x5C64;_1" xmlns="http://www.w3.org/2000/svg" xmlns:xlink="http://www.w3.org/1999/xlink" x="0px"
	 y="0px" viewBox="0 0 239.592 50" style="enable-background:new 0 0 239.592 50;" xml:space="preserve">
<path style="fill:#FFC600;" d="M21.724,25.637c-0.012,0-0.023,0.005-0.037,0.005v-0.005H19.91L35.558,9.98L25.586,0L0,25.6
	l0.038,0.037H0V39.75h10.241V50h14.106V28.298H24.34c0.004-0.014,0.006-0.026,0.006-0.04C24.346,26.811,23.172,25.637,21.724,25.637
	z M46.923,25.637l2.396-2.398l-9.972-9.978L27.016,25.6l0.037,0.037h-0.037V39.75h10.239V50H51.36V25.637H46.923z"/>
<g>
	<path style="fill:#00BDD4;" d="M106.238,44.4h-4.071v-3.557H100.6v8.944h1.566v-4.034h4.071v4.034h1.564v-8.944h-1.564V44.4z
		 M114.967,46.055c0,0.299-0.015,0.605-0.044,0.914c-0.028,0.309-0.112,0.587-0.25,0.833c-0.138,0.247-0.348,0.449-0.627,0.606
		c-0.279,0.16-0.674,0.24-1.183,0.24c-0.51,0-0.905-0.079-1.184-0.24c-0.281-0.157-0.488-0.36-0.626-0.606
		c-0.138-0.246-0.222-0.523-0.251-0.833c-0.03-0.309-0.044-0.614-0.044-0.914v-5.211h-1.565v5.725c0,0.575,0.087,1.076,0.263,1.502
		c0.176,0.426,0.424,0.783,0.745,1.071c0.321,0.288,0.708,0.504,1.159,0.645c0.451,0.141,0.952,0.213,1.504,0.213
		c0.551,0,1.051-0.071,1.502-0.213c0.451-0.142,0.837-0.358,1.159-0.645c0.321-0.288,0.571-0.645,0.745-1.071
		c0.176-0.426,0.264-0.927,0.264-1.502v-5.725h-1.566V46.055z M128.216,47.294c-0.11,0.284-0.26,0.532-0.451,0.745
		c-0.193,0.213-0.421,0.38-0.689,0.501c-0.267,0.121-0.577,0.182-0.927,0.182c-0.476,0-0.888-0.096-1.235-0.288
		c-0.345-0.192-0.628-0.449-0.844-0.771c-0.218-0.321-0.378-0.688-0.483-1.096c-0.105-0.409-0.156-0.827-0.156-1.253
		c0-0.426,0.051-0.843,0.156-1.252c0.105-0.409,0.265-0.774,0.483-1.096c0.216-0.321,0.499-0.577,0.844-0.77
		c0.347-0.192,0.759-0.288,1.235-0.288c0.325,0,0.611,0.043,0.858,0.131c0.247,0.088,0.461,0.211,0.645,0.369
		c0.183,0.159,0.334,0.347,0.45,0.563c0.117,0.218,0.208,0.456,0.277,0.714h1.564c-0.05-0.484-0.179-0.914-0.388-1.291
		c-0.209-0.374-0.481-0.694-0.82-0.957c-0.337-0.264-0.729-0.463-1.171-0.601c-0.443-0.138-0.914-0.207-1.415-0.207
		c-0.669,0-1.267,0.125-1.799,0.376c-0.53,0.25-0.979,0.589-1.346,1.016c-0.367,0.425-0.649,0.922-0.845,1.489
		c-0.197,0.568-0.295,1.17-0.295,1.804c0,0.644,0.098,1.249,0.295,1.816c0.197,0.568,0.478,1.065,0.845,1.49
		c0.367,0.426,0.816,0.764,1.346,1.009c0.531,0.246,1.13,0.37,1.799,0.37c0.543,0,1.039-0.089,1.49-0.264
		c0.45-0.174,0.844-0.423,1.177-0.744c0.334-0.323,0.599-0.704,0.796-1.147c0.195-0.442,0.309-0.931,0.344-1.465h-1.528
		C128.395,46.705,128.324,47.01,128.216,47.294z M130.95,49.787h1.567v-8.944h-1.567V49.787z M97.604,47.294
		c-0.109,0.284-0.259,0.532-0.451,0.745c-0.192,0.213-0.421,0.38-0.689,0.501c-0.268,0.121-0.575,0.182-0.927,0.182
		c-0.476,0-0.888-0.096-1.234-0.288c-0.346-0.192-0.629-0.449-0.845-0.771c-0.218-0.321-0.378-0.688-0.482-1.096
		c-0.105-0.409-0.157-0.827-0.157-1.253c0-0.426,0.052-0.843,0.157-1.252c0.104-0.409,0.264-0.774,0.482-1.096
		c0.216-0.321,0.499-0.577,0.845-0.77c0.346-0.192,0.758-0.288,1.234-0.288c0.326,0,0.613,0.043,0.858,0.131
		c0.246,0.088,0.462,0.211,0.645,0.369c0.185,0.159,0.335,0.347,0.451,0.563c0.117,0.218,0.21,0.456,0.277,0.714h1.564
		c-0.049-0.484-0.179-0.914-0.387-1.291c-0.208-0.374-0.482-0.694-0.82-0.957c-0.338-0.264-0.729-0.463-1.172-0.601
		c-0.443-0.138-0.914-0.207-1.415-0.207c-0.667,0-1.267,0.125-1.798,0.376c-0.53,0.25-0.978,0.589-1.346,1.016
		c-0.368,0.425-0.649,0.922-0.845,1.489c-0.197,0.568-0.294,1.17-0.294,1.804c0,0.644,0.097,1.249,0.294,1.816
		c0.196,0.568,0.477,1.065,0.845,1.49c0.368,0.426,0.816,0.764,1.346,1.009S94.87,50,95.537,50c0.543,0,1.039-0.089,1.491-0.264
		c0.449-0.174,0.842-0.423,1.177-0.744c0.333-0.323,0.599-0.704,0.795-1.147c0.196-0.442,0.311-0.931,0.344-1.465h-1.527
		C97.782,46.705,97.712,47.01,97.604,47.294z M77.604,45.834c-0.147-0.204-0.328-0.386-0.545-0.544
		c-0.218-0.158-0.473-0.284-0.764-0.376c-0.118-0.032-0.313-0.085-0.583-0.156c-0.271-0.072-0.549-0.145-0.833-0.219
		c-0.284-0.075-0.54-0.144-0.771-0.207c-0.23-0.062-0.361-0.098-0.393-0.106c-0.319-0.093-0.575-0.229-0.771-0.407
		c-0.196-0.18-0.294-0.429-0.294-0.745c0-0.225,0.051-0.414,0.157-0.565c0.103-0.149,0.235-0.269,0.394-0.358
		c0.159-0.086,0.334-0.149,0.526-0.187c0.192-0.038,0.38-0.056,0.564-0.056c0.543,0,0.989,0.118,1.341,0.356
		c0.35,0.239,0.546,0.645,0.588,1.222h1.566c0-0.467-0.092-0.879-0.275-1.234c-0.184-0.355-0.432-0.653-0.745-0.896
		c-0.313-0.243-0.677-0.424-1.09-0.544c-0.413-0.121-0.854-0.182-1.322-0.182c-0.401,0-0.798,0.052-1.19,0.156
		c-0.392,0.106-0.743,0.267-1.052,0.482c-0.309,0.219-0.558,0.492-0.745,0.821c-0.188,0.33-0.282,0.72-0.282,1.171
		c0,0.235,0.031,0.463,0.094,0.689c0.063,0.225,0.169,0.439,0.32,0.639c0.15,0.201,0.353,0.383,0.607,0.544
		c0.254,0.163,0.575,0.295,0.959,0.396c0.617,0.167,1.137,0.302,1.558,0.406c0.422,0.106,0.792,0.215,1.109,0.333
		c0.184,0.067,0.353,0.181,0.509,0.344c0.153,0.163,0.231,0.415,0.231,0.757c0,0.166-0.033,0.333-0.1,0.494
		c-0.067,0.164-0.176,0.307-0.326,0.432c-0.15,0.126-0.347,0.228-0.589,0.306c-0.243,0.081-0.534,0.12-0.877,0.12
		c-0.317,0-0.611-0.036-0.883-0.106c-0.271-0.072-0.511-0.184-0.72-0.339c-0.208-0.155-0.372-0.352-0.488-0.595
		c-0.117-0.242-0.175-0.534-0.175-0.876h-1.565c0.008,0.551,0.112,1.03,0.312,1.434c0.201,0.405,0.468,0.737,0.802,0.996
		c0.334,0.259,0.727,0.45,1.177,0.576C73.488,49.937,73.969,50,74.479,50c0.442,0,0.876-0.053,1.302-0.157
		c0.426-0.104,0.806-0.27,1.141-0.495c0.334-0.225,0.603-0.516,0.808-0.871c0.204-0.355,0.306-0.784,0.306-1.284
		c0-0.234-0.035-0.467-0.107-0.701C77.858,46.258,77.749,46.04,77.604,45.834z M68.064,44.4h-4.071v-3.557h-1.566v8.944h1.566
		v-4.034h4.071v4.034h1.566v-8.944h-1.566V44.4z M88.433,47.266h-0.025l-4.084-6.423h-1.653v8.944h1.491v-6.474h0.037l4.071,6.474
		h1.654v-8.944h-1.491V47.266z M79.475,49.787h1.566v-8.944h-1.566V49.787z M133.582,42.196h2.83v7.591h1.566v-7.591h2.844v-1.353
		h-7.24V42.196z M202.624,47.266h-0.025l-4.084-6.423h-1.653v8.944h1.49v-6.474h0.037l4.071,6.474h1.654v-8.944h-1.49V47.266z
		 M210.281,47.845h-0.026l-2.466-7.001h-2.205v8.944h1.49v-6.903h0.025l2.48,6.903h1.291l2.48-6.903h0.025v6.903h1.49v-8.944h-2.179
		L210.281,47.845z M216.312,49.787h6.402v-1.353h-4.836v-2.617h4.836v-1.278h-4.836v-2.342h4.836v-1.353h-6.402V49.787z
		 M229.787,47.266h-0.026l-4.083-6.423h-1.655v8.944h1.491v-6.474h0.038l4.071,6.474h1.654v-8.944h-1.49V47.266z M232.334,40.843
		v1.353h2.831v7.591h1.566v-7.591h2.842v-1.353H232.334z M170.484,42.021c-0.368-0.427-0.816-0.765-1.346-1.016
		c-0.53-0.25-1.129-0.376-1.798-0.376c-0.668,0-1.267,0.125-1.798,0.376c-0.529,0.25-0.978,0.589-1.345,1.016
		c-0.368,0.425-0.65,0.922-0.846,1.489c-0.197,0.568-0.295,1.17-0.295,1.804c0,0.644,0.097,1.249,0.295,1.816
		c0.196,0.568,0.478,1.065,0.846,1.49c0.367,0.426,0.816,0.764,1.345,1.009c0.53,0.246,1.13,0.37,1.798,0.37
		c0.669,0,1.267-0.124,1.798-0.37c0.53-0.246,0.978-0.583,1.346-1.009c0.368-0.425,0.649-0.921,0.846-1.49
		c0.195-0.568,0.294-1.173,0.294-1.816c0-0.635-0.099-1.236-0.294-1.804C171.134,42.944,170.852,42.447,170.484,42.021z
		 M169.902,46.568c-0.104,0.407-0.264,0.774-0.482,1.096c-0.217,0.321-0.499,0.578-0.846,0.771
		c-0.345,0.192-0.757,0.288-1.233,0.288c-0.476,0-0.887-0.096-1.233-0.288c-0.347-0.192-0.629-0.449-0.846-0.771
		c-0.218-0.321-0.378-0.688-0.482-1.096c-0.104-0.409-0.157-0.827-0.157-1.253c0-0.426,0.053-0.843,0.157-1.252
		c0.104-0.409,0.264-0.774,0.482-1.096c0.217-0.321,0.499-0.577,0.846-0.77c0.346-0.192,0.757-0.288,1.233-0.288
		c0.476,0,0.888,0.096,1.233,0.288c0.347,0.193,0.629,0.449,0.846,0.77c0.218,0.322,0.378,0.687,0.482,1.096
		c0.104,0.409,0.157,0.826,0.157,1.252C170.059,45.74,170.006,46.159,169.902,46.568z M195.271,47.431
		c0-0.35-0.044-0.642-0.132-0.876c-0.087-0.234-0.197-0.425-0.331-0.571c-0.134-0.146-0.278-0.252-0.432-0.319
		c-0.154-0.067-0.299-0.109-0.432-0.126v-0.025c0.076-0.025,0.194-0.075,0.357-0.151c0.163-0.075,0.327-0.198,0.495-0.369
		c0.166-0.171,0.313-0.397,0.439-0.676c0.124-0.28,0.188-0.633,0.188-1.059c0-0.759-0.247-1.351-0.74-1.778
		c-0.493-0.426-1.231-0.639-2.216-0.639h-4.272v8.944h1.566v-3.683h2.305c0.359,0,0.654,0.045,0.883,0.137
		c0.229,0.093,0.411,0.236,0.544,0.432c0.134,0.198,0.225,0.443,0.277,0.739c0.05,0.297,0.075,0.651,0.075,1.059
		c0,0.218,0.01,0.443,0.031,0.676c0.02,0.235,0.09,0.446,0.207,0.639h1.678c-0.167-0.184-0.289-0.49-0.37-0.922
		C195.31,48.436,195.271,47.957,195.271,47.431z M193.468,44.557c-0.259,0.238-0.638,0.356-1.141,0.356h-2.568v-2.792h2.543
		c0.201,0,0.395,0.016,0.582,0.05c0.187,0.033,0.355,0.1,0.501,0.201c0.146,0.1,0.261,0.239,0.344,0.418
		c0.084,0.18,0.125,0.412,0.125,0.696C193.855,43.963,193.725,44.319,193.468,44.557z M145.732,44.852l-2.367-4.008h-1.816
		l3.357,5.436v3.508h1.565v-3.508l3.344-5.436h-1.753L145.732,44.852z M158.245,46.267h2.38c-0.009,0.375-0.067,0.718-0.176,1.027
		c-0.107,0.309-0.269,0.569-0.482,0.782c-0.213,0.214-0.474,0.376-0.783,0.488c-0.309,0.114-0.663,0.166-1.064,0.157
		c-0.476,0-0.888-0.096-1.235-0.288c-0.345-0.192-0.627-0.449-0.844-0.771c-0.216-0.321-0.378-0.688-0.482-1.096
		c-0.106-0.409-0.157-0.827-0.157-1.253c0-0.426,0.051-0.843,0.157-1.252c0.104-0.409,0.266-0.774,0.482-1.096
		c0.217-0.321,0.499-0.577,0.844-0.77c0.347-0.192,0.759-0.288,1.235-0.288c0.283,0,0.555,0.037,0.815,0.113
		c0.258,0.074,0.491,0.187,0.701,0.338c0.208,0.149,0.381,0.335,0.519,0.557c0.137,0.222,0.227,0.478,0.269,0.77h1.527
		c-0.057-0.5-0.199-0.944-0.425-1.327c-0.226-0.385-0.51-0.704-0.852-0.958c-0.342-0.256-0.733-0.448-1.171-0.577
		c-0.439-0.129-0.9-0.194-1.384-0.194c-0.669,0-1.267,0.125-1.798,0.376c-0.53,0.25-0.98,0.589-1.346,1.016
		c-0.368,0.425-0.649,0.922-0.845,1.489c-0.196,0.568-0.294,1.17-0.294,1.804c0,0.644,0.098,1.249,0.294,1.816
		c0.196,0.568,0.477,1.065,0.845,1.49c0.366,0.426,0.816,0.764,1.346,1.009S157.451,50,158.12,50c0.543,0,1.023-0.093,1.44-0.276
		c0.418-0.184,0.835-0.514,1.253-0.99l0.002,1.053h1.238v-4.81h-3.808V46.267z M175.531,47.919h-0.025l-2.243-7.076h-1.628
		l2.981,8.944h1.74l3.057-8.944h-1.592L175.531,47.919z M180.303,49.787h6.402v-1.353h-4.836v-2.617h4.836v-1.278h-4.836v-2.342
		h4.836v-1.353h-6.402V49.787z"/>
	<path style="fill:#00BDD4;" d="M92.222,8.884l-2.46-2.905c0,0-2.295,2.404-6.598,3.796V6.448l-3.976-0.536v10.118
		c0,7.052,0.396,15.606-4.746,20.747c0,0,4.477-1.529,6.71-6.152c2.142-4.434,1.886-8.643,1.995-12.634h2.46v18.484l3.753-0.536
		V17.992h2.697v-1.594h-0.006L90.3,14.646l-1.753,1.752h-5.383v-5.516C85.735,10.96,89.056,10.444,92.222,8.884z M114.104,13.718
		h-0.006l-1.751-1.751l-1.753,1.751h-3.28c0.757-1.743,1.476-3.781,2.113-6.165l-5.497-1.686c0,0,0.751,10.699-5.19,17.89
		c0,0,4.124-1.079,7.772-8.322v21.041l3.753-0.536V15.313h3.838V13.718z M159.237,18.298h-6.311V14.41l-3.753-0.536v4.424h-6.732
		v-2.145l-3.753-0.537v18.192l3.753-0.537V19.893h6.732v16.584l3.753-0.536V19.893h6.311v10.244h-3.955c0,0,1.987,1.213,2.268,3.725
		c0,0,1.666,0,3.05,0c1.385,0,2.478-0.766,2.478-2.332V16.075l-3.841-0.536V18.298z M75.823,31.703
		c1.547-0.372,2.077-2.848,0.385-4.423c-1.078-1.004-3.017-1.434-4.322-1.613v-1.165h5.846v-1.594h-0.005l-1.753-1.753l-1.753,1.753
		h-2.334v-3.623h5.846v-1.594h-0.009l-1.75-1.75l-1.749,1.75h-2.037c1.281-0.851,3.084-2.522,3.86-4.565l-3.735-1.358
		c0,0-0.167,3.644-1.512,5.923h-8.164v1.594h5.501v3.623h-5.501v1.594h4.882c-0.432,1.84-1.91,6.769-5.882,9.864
		c0,0,3.532-0.585,6.501-4.281v6.392l3.751-0.536v-9.087c0.509,0.616,1.031,1.426,1.303,2.37
		C73.83,31.435,74.648,31.986,75.823,31.703z M77.732,9.622h-0.006L75.973,7.87l-1.752,1.753h-2.335V6.459l-3.751-0.536v3.699
		h-5.501v1.594h15.097V9.622z M64.415,11.752c0,0,1.424,1.156,1.591,3.032c0.168,1.877,1.316,2.533,2.748,1.91
		c1.323-0.575,1.019-2.983-0.519-3.971C66.459,11.585,64.415,11.752,64.415,11.752z M127.164,11.968l-1.749,1.75H120.4
		c0.734-1.742,1.424-4.005,2.026-6.392l-5.491-1.465c0,0,0.744,10.706-5.196,17.897c0,0,4.308-0.989,7.94-8.444h1.709v17.316h-3.956
		c0,0,1.989,1.345,2.269,3.858c0,0,1.664,0,3.049,0c1.385,0,2.478-0.766,2.478-2.331V15.313h3.694v-1.595h-0.009L127.164,11.968z
		 M229.293,29.162c1.67-0.585,1.558-3.327,0.163-4.735c-1.543-1.559-5.351-1.564-5.351-1.564s1.492,0.887,2.019,3.326
		C226.65,28.626,227.77,29.696,229.293,29.162z M239.585,18.589l-1.75-1.749l-1.75,1.749h-0.597v-5.668h-3.84v5.668h-7.64v1.594
		h7.64v12.579h-3.956c0,0,1.989,1.211,2.269,3.725c0,0,1.666,0,3.05,0c1.384,0,2.477-0.766,2.477-2.331V20.183h4.104v-1.594H239.585
		z M224.34,13.408l-3.599-1.626h18.823v-1.595h-0.006l-1.752-1.752l-1.752,1.752h-8.28V6.459l-3.751-0.536v4.264h-8.668V7.976
		l-4.004-0.535V20.63c0,4.774,0.291,12.531-3.863,16.483c0,0,6.292-2.639,7.628-11.276c0.795-0.317,1.945-0.981,3.294-2.376v13.017
		l3.753-0.536V20.274l-1.168-0.166C222.078,18.401,223.214,16.215,224.34,13.408z M215.229,24.983
		c0.066-0.603,0.11-1.23,0.126-1.888V11.783h4.158C219.385,13.565,218.831,21.07,215.229,24.983z M196.484,28.273
		c2.202-3.193,3.696-7.561,4.337-13.776h1.691v-1.594h-0.006l-1.751-1.752l-1.753,1.752h-5.588c0.649-1.697,1.118-3.669,1.465-5.853
		l-4.726-1.376c0,0,0.872,12.408-4.468,18.561c0,0,2.277-0.886,4.714-4.745c0.009,2.072,1.145,6.744,2.267,8.933
		c-2.124,3.298-5.252,6.395-9.942,8.021c0,0,6.222-0.139,11.486-5.427c2.779,3.837,6.089,5.448,6.089,5.448
		c1.626-2.571,3.644-3.461,3.644-3.461C200.63,32.104,198.369,30.295,196.484,28.273z M194.303,25.423
		c-1.62-2.399-2.615-5.332-3.054-7.254c0.599-0.982,1.106-2.375,1.679-3.672h3.815C196.658,16.031,196.502,20.647,194.303,25.423z
		 M189.826,27.287c-2.028,0.786-4.045,1.362-5.941,1.78v-9.375h3.696v-1.594h-0.005l-1.753-1.751l-1.752,1.751h-0.186V9.717h4.547
		V8.123h-0.003l-1.755-1.756l-1.755,1.756h-11.735v1.594h6.948v20.017c-0.414,0.057-0.816,0.107-1.205,0.15V16.286l-3.752-0.536
		v14.4c-1.431,0.042-2.278-0.005-2.278-0.005l1.244,4.655C187.102,31.887,189.826,27.287,189.826,27.287z M163.239,8.918
		l-1.75,1.751h-8.563v-4.21l-3.753-0.536v4.746h-12.317v1.594h28.141v-1.594h-0.007L163.239,8.918z"/>
</g>
</svg>
