<?xml version="1.0" encoding="iso-8859-1"?>
<!-- Generator: Adobe Illustrator 18.0.0, SVG Export Plug-In . SVG Version: 6.00 Build 0)  -->
<!DOCTYPE svg PUBLIC "-//W3C//DTD SVG 1.1//EN" "http://www.w3.org/Graphics/SVG/1.1/DTD/svg11.dtd">
<svg version="1.1" id="&#x5716;&#x5C64;_1" xmlns="http://www.w3.org/2000/svg" xmlns:xlink="http://www.w3.org/1999/xlink" x="0px"
	 y="0px" viewBox="0 0 54.791 52.286" style="enable-background:new 0 0 54.791 52.286;" xml:space="preserve">
<g id="_x38_wS3qp_1_">
	<g>
		<g>
			<g>
				<path style="fill:#00BDD4;" d="M25.627,52.286c-0.474,0-0.881-0.188-1.146-0.528c-0.3-0.384-0.384-0.916-0.238-1.5
					c0.124-0.494,0.272-0.981,0.422-1.47c0.159-0.519,0.317-1.038,0.443-1.565c0.133-0.555,0.206-1.168,0.225-1.875
					c0.019-0.692-0.209-0.937-0.938-1.003c-6.206-0.562-11.63-2.629-16.119-6.144c-4.532-3.548-7.238-7.976-8.043-13.161
					c-0.805-5.188,0.487-10.042,3.84-14.426c3.711-4.851,8.806-8.027,15.575-9.713C22.049,0.304,24.543,0,27.059,0l0.361,0.002
					c7.43,0.069,13.617,2.097,18.915,6.199c4.371,3.386,7.088,7.548,8.075,12.369c1.014,4.955,0.001,9.729-3.012,14.188
					c-2.3,3.404-5.316,6.024-8.21,8.417c-4.751,3.926-9.946,7.416-15.442,10.372c-0.569,0.305-1.076,0.519-1.549,0.654
					C26.002,52.258,25.811,52.286,25.627,52.286z M27.059,1c-2.435,0-4.847,0.293-7.17,0.872C13.348,3.5,8.434,6.559,4.867,11.222
					c-3.182,4.159-4.408,8.757-3.646,13.664c0.765,4.927,3.346,9.143,7.672,12.528c4.335,3.394,9.581,5.391,15.593,5.935
					c1.259,0.115,1.881,0.797,1.848,2.026c-0.021,0.776-0.104,1.456-0.252,2.08c-0.131,0.547-0.295,1.086-0.46,1.626
					c-0.144,0.471-0.288,0.942-0.407,1.42c-0.069,0.274-0.049,0.508,0.056,0.643c0.116,0.148,0.359,0.182,0.653,0.098
					c0.404-0.116,0.846-0.304,1.351-0.574c5.438-2.925,10.579-6.378,15.279-10.263c2.837-2.345,5.793-4.911,8.019-8.206
					c2.855-4.229,3.818-8.746,2.859-13.427c-0.95-4.646-3.472-8.499-7.708-11.779c-5.117-3.964-11.107-5.924-18.312-5.99L27.059,1z
					 M33.542,29.258c-0.453,0-1.121-0.172-1.729-0.993c-1.214-1.641-2.424-3.283-3.635-4.928l-0.717-0.974l0.008,2.406
					c0.008,0.855,0.016,1.712-0.007,2.566c-0.029,1.103-0.8,1.884-1.873,1.901c-1.101,0-1.914-0.799-1.968-1.899
					c-0.021-0.406-0.011-0.814-0.002-1.222c0.006-0.222,0.011-0.443,0.011-0.665l0.006-8.284c0.001-0.755,0.135-1.804,1.288-2.199
					c0.22-0.075,0.435-0.113,0.64-0.113c0.852,0,1.421,0.64,1.775,1.12l4.264,5.786l0.009-4.889
					c0.003-1.115,0.791-1.985,1.833-2.023h0.003c1.133,0,1.968,0.88,1.973,2.002c0.014,3.43,0.017,6.858,0.013,10.288
					c0,1.038-0.494,1.781-1.355,2.039C33.902,29.231,33.721,29.258,33.542,29.258z M27.328,20.495l1.657,2.249
					c1.21,1.644,2.42,3.286,3.634,4.926c0.238,0.322,0.671,0.697,1.173,0.551c0.159-0.048,0.643-0.193,0.643-1.083
					c0.004-3.429,0.001-6.855-0.013-10.283c-0.003-0.574-0.392-1.007-0.904-1.007c-0.537,0.02-0.903,0.451-0.904,1.027l-0.01,5.592
					c0,0.135-0.01,0.271-0.023,0.44l-0.099,1.501l-0.948-1.095c-0.092-0.103-0.156-0.177-0.214-0.255l-4.783-6.491
					c-0.472-0.639-0.78-0.713-0.971-0.713c-0.096,0-0.199,0.02-0.315,0.059c-0.31,0.106-0.611,0.291-0.612,1.255l-0.006,8.284
					c0,0.229-0.005,0.458-0.011,0.688c-0.009,0.384-0.019,0.767,0,1.149c0.028,0.567,0.404,0.948,0.936,0.948
					c0.544-0.009,0.893-0.372,0.907-0.928c0.022-0.843,0.015-1.687,0.007-2.531l-0.008-4.139L27.328,20.495z M13.857,29.239
					l-2.327-0.005c-1.329-0.005-2.094-0.754-2.098-2.056c-0.011-3.402-0.004-6.805,0.009-10.206
					c0.005-1.241,0.788-2.108,1.905-2.108h0.016c1.124,0.009,1.885,0.861,1.894,2.12c0.014,1.951,0.015,3.901,0.017,5.852
					l0.003,2.593l1.806-0.004c0.522,0,1.04,0.003,1.557,0.01c0.943,0.013,1.729,0.657,1.911,1.567
					c0.166,0.835-0.316,1.724-1.122,2.068c-0.252,0.107-0.546,0.158-0.927,0.161C15.618,29.236,14.738,29.239,13.857,29.239z
					 M11.346,15.364v0.5c-0.556,0-0.902,0.426-0.905,1.112c-0.013,3.399-0.02,6.8-0.009,10.199c0.002,0.749,0.321,1.056,1.102,1.059
					l2.323,0.005c0.879,0,1.757-0.003,2.636-0.008c0.24-0.002,0.418-0.028,0.542-0.081c0.373-0.16,0.607-0.579,0.533-0.953
					c-0.089-0.442-0.477-0.757-0.944-0.763c-0.513-0.007-1.025-0.01-1.543-0.01l-2.806,0.005l-0.003-3.593
					c-0.002-1.948-0.003-3.896-0.017-5.845c-0.005-0.702-0.342-1.123-0.901-1.128L11.346,15.364z M40.53,29.238l-2.19-0.004
					c-1.319-0.005-2.078-0.757-2.08-2.063c-0.008-3.404-0.001-6.81,0.015-10.214c0.006-1.332,0.777-2.104,2.116-2.119
					c1.638-0.018,3.273-0.02,4.909-0.004c1.228,0.011,2.09,0.803,2.097,1.926c0.008,1.12-0.854,1.912-2.094,1.926
					c-0.473,0.005-0.945,0.007-1.421,0.007l-1.736-0.003v1.447c0.174-0.001,0.348-0.003,0.521-0.005
					c0.865-0.008,1.727-0.018,2.583,0.029c0.581,0.03,1.189,0.255,1.588,0.586c0.583,0.484,0.736,1.266,0.401,2.037
					c-0.334,0.77-0.955,1.18-1.797,1.187c-0.519,0.004-1.036,0.005-1.559,0.005l-1.729-0.001v1.438l1.728-0.003
					c0.525,0,1.05,0.002,1.574,0.009c0.972,0.014,1.744,0.639,1.924,1.554c0.177,0.912-0.283,1.764-1.145,2.118
					c-0.226,0.092-0.489,0.14-0.785,0.141C42.476,29.236,41.503,29.238,40.53,29.238z M41.031,15.824
					c-0.876,0-1.753,0.004-2.629,0.014c-0.798,0.009-1.124,0.334-1.128,1.123c-0.016,3.402-0.022,6.806-0.015,10.208
					c0.001,0.764,0.306,1.062,1.084,1.065l2.187,0.004c0.972,0,1.943-0.002,2.916-0.007c0.164-0.001,0.307-0.023,0.41-0.066
					c0.421-0.173,0.629-0.557,0.542-1.001c-0.087-0.445-0.462-0.738-0.955-0.745c-0.52-0.007-1.039-0.009-1.561-0.009l-2.728,0.004
					v-3.44l2.729,0.002c0.52,0,1.035-0.001,1.551-0.005c0.445-0.004,0.711-0.179,0.887-0.585c0.092-0.211,0.197-0.604-0.122-0.869
					c-0.234-0.194-0.637-0.338-1.002-0.357c-0.838-0.044-1.677-0.035-2.52-0.027c-0.344,0.003-0.688,0.007-1.032,0.007h-0.5v-3.45
					l2.736,0.004c0.473,0,0.941-0.002,1.41-0.007c0.685-0.008,1.108-0.359,1.104-0.919c-0.003-0.569-0.427-0.927-1.106-0.933
					C42.538,15.827,41.784,15.824,41.031,15.824z M20.756,29.223c-1.161,0-1.935-0.865-1.935-2.153
					c0-3.355,0.006-6.709,0.018-10.064c0.005-1.267,0.762-2.124,1.884-2.133h0.02c1.114,0,1.867,0.848,1.875,2.11
					c0.008,1.196,0.006,2.395,0.004,3.592l-0.001,1.018l0.035,0.493l0.001,1.55c0.001,1.139,0.002,2.276-0.002,3.414
					C22.649,28.364,21.904,29.218,20.756,29.223z M20.743,15.372l-0.011,0.5c-0.802,0.007-0.892,0.797-0.893,1.137
					c-0.012,3.354-0.018,6.707-0.018,10.061c0,0.347,0.09,1.153,0.925,1.153c0.747-0.003,0.905-0.643,0.908-1.178
					c0.004-1.136,0.003-2.272,0.002-3.409l-0.036-1.551l0.001-1.512c0.002-1.195,0.004-2.391-0.004-3.585
					c-0.002-0.262-0.069-1.116-0.875-1.116V15.372z"/>
			</g>
		</g>
		<g>
			<g>
				<path style="fill:#00BDD4;" d="M26.962,21.066c0,0.843-0.001,1.687,0,2.53c0.002,1.242,0.033,2.485,0,3.727
					c-0.022,0.849-0.605,1.401-1.381,1.413c-0.802,0.013-1.419-0.563-1.461-1.423c-0.03-0.619,0.01-1.242,0.01-1.863
					c0.003-2.761,0.003-5.522,0.006-8.283c0.001-0.983,0.287-1.5,0.951-1.727c0.696-0.239,1.247,0.011,1.851,0.831
					c1.593,2.164,3.187,4.327,4.782,6.489c0.078,0.106,0.172,0.201,0.34,0.395c0.02-0.306,0.043-0.498,0.044-0.69
					c0.005-1.864,0.004-3.727,0.009-5.591c0.003-0.854,0.578-1.497,1.352-1.526c0.802-0.029,1.453,0.618,1.457,1.504
					c0.014,3.428,0.016,6.857,0.013,10.285c-0.001,0.837-0.36,1.37-1,1.562c-0.614,0.184-1.225-0.065-1.719-0.732
					c-1.706-2.306-3.404-4.616-5.106-6.925C27.061,21.05,27.012,21.058,26.962,21.066z"/>
			</g>
		</g>
		<g>
			<g>
				<path style="fill:#00BDD4;" d="M39.645,18.188c0,0.852,0,1.604,0,2.45c1.202,0,2.393-0.042,3.578,0.021
					c0.445,0.024,0.959,0.193,1.295,0.472c0.418,0.348,0.504,0.896,0.262,1.454c-0.26,0.6-0.713,0.881-1.342,0.886
					c-1.24,0.01-2.481,0.003-3.784,0.003c0,0.803,0,1.587,0,2.441c1.277,0,2.536-0.012,3.795,0.005c0.745,0.01,1.31,0.484,1.44,1.15
					c0.13,0.667-0.198,1.294-0.844,1.56c-0.183,0.075-0.398,0.103-0.598,0.104c-1.702,0.008-3.404,0.008-5.106,0.002
					c-1.041-0.004-1.581-0.517-1.583-1.564c-0.007-3.404-0.001-6.807,0.015-10.211c0.005-1.068,0.549-1.609,1.622-1.621
					c1.633-0.018,3.266-0.019,4.898-0.004c0.967,0.009,1.597,0.591,1.602,1.428c0.005,0.835-0.628,1.412-1.6,1.423
					C42.102,18.198,40.908,18.188,39.645,18.188z"/>
			</g>
		</g>
		<g>
			<g>
				<path style="fill:#00BDD4;" d="M12.775,25.929c1.339,0,2.597-0.012,3.855,0.005c0.717,0.01,1.296,0.506,1.428,1.166
					c0.119,0.595-0.221,1.251-0.828,1.51c-0.222,0.095-0.488,0.12-0.734,0.121c-1.654,0.01-3.309,0.009-4.964,0.003
					c-1.039-0.004-1.597-0.525-1.6-1.557c-0.01-3.401-0.004-6.802,0.009-10.203c0.004-0.979,0.586-1.616,1.417-1.61
					c0.83,0.006,1.391,0.627,1.398,1.624c0.018,2.712,0.015,5.423,0.02,8.135C12.775,25.369,12.775,25.614,12.775,25.929z"/>
			</g>
		</g>
		<g>
			<g>
				<path style="fill:#00BDD4;" d="M22.156,22.085c0,1.654,0.005,3.308-0.002,4.962c-0.004,1.046-0.535,1.671-1.4,1.675
					c-0.864,0.004-1.432-0.638-1.432-1.653c0-3.354,0.006-6.708,0.018-10.062c0.004-0.998,0.552-1.628,1.387-1.635
					c0.83-0.008,1.385,0.62,1.391,1.613c0.01,1.7,0.003,3.4,0.003,5.1C22.132,22.085,22.144,22.085,22.156,22.085z"/>
			</g>
		</g>
	</g>
</g>
</svg>
